<svg width="100" height="100" viewBox="0 0 100 100" fill="none" xmlns="http://www.w3.org/2000/svg">
<path d="M8.33301 50.1088C8.33301 71.5515 24.446 89.2208 45.1946 91.6095C48.2563 91.962 51.2239 90.6569 53.4031 88.472C56.1258 85.7422 56.1258 81.3162 53.4031 78.5864C51.2239 76.4016 49.4474 73.1423 51.0908 70.5285C57.6603 60.0801 91.6663 84.0751 91.6663 50.1088C91.6663 27.0369 73.0115 8.33337 49.9997 8.33337C26.9878 8.33337 8.33301 27.0369 8.33301 50.1088Z" stroke="#9DD57B" stroke-width="4"/>
<circle cx="72.917" cy="47.9166" r="4.75" stroke="#9DD57B" stroke-width="3"/>
<path d="M31.833 47.9166C31.833 50.54 29.7064 52.6666 27.083 52.6666C24.4597 52.6666 22.333 50.54 22.333 47.9166C22.333 45.2933 24.4597 43.1666 27.083 43.1666C29.7064 43.1666 31.833 45.2933 31.833 47.9166Z" stroke="#9DD57B" stroke-width="3"/>
<path d="M44.6875 29.1658C44.6875 31.7891 42.5609 33.9158 39.9375 33.9158C37.3141 33.9158 35.1875 31.7891 35.1875 29.1658C35.1875 26.5424 37.3141 24.4158 39.9375 24.4158C42.5609 24.4158 44.6875 26.5424 44.6875 29.1658Z" stroke="#9DD57B" stroke-width="3"/>
<path d="M65.167 29.1666C65.167 31.79 63.0403 33.9166 60.417 33.9166C57.7936 33.9166 55.667 31.79 55.667 29.1666C55.667 26.5433 57.7936 24.4166 60.417 24.4166C63.0403 24.4166 65.167 26.5433 65.167 29.1666Z" stroke="#9DD57B" stroke-width="3"/>
</svg>
