<svg width="33" height="33" viewBox="0 0 33 33" fill="none" xmlns="http://www.w3.org/2000/svg">
<g clip-path="url(#clip0_1043_818)">
<path d="M16.0925 0.714924C16.2315 0.537372 16.5002 0.537372 16.6392 0.714924L18.7196 3.37258C18.8254 3.50775 19.0141 3.54528 19.1636 3.4609L22.1026 1.80166C22.299 1.69081 22.5472 1.79365 22.6077 2.01088L23.5127 5.26235C23.5587 5.42772 23.7187 5.53462 23.8891 5.51386L27.2393 5.10565C27.4632 5.07838 27.6532 5.2684 27.6259 5.49222L27.2177 8.84251C27.1969 9.0129 27.3038 9.17289 27.4692 9.21892L30.7207 10.1239C30.9379 10.1843 31.0408 10.4326 30.9299 10.629L29.2707 13.568C29.1863 13.7175 29.2238 13.9062 29.359 14.012L32.0166 16.0924C32.1942 16.2314 32.1942 16.5001 32.0166 16.6391L29.359 18.7194C29.2238 18.8252 29.1863 19.014 29.2707 19.1634L30.9299 22.1025C31.0408 22.2988 30.9379 22.5471 30.7207 22.6076L27.4692 23.5125C27.3038 23.5586 27.1969 23.7185 27.2177 23.8889L27.6259 27.2392C27.6532 27.463 27.4632 27.6531 27.2393 27.6258L23.8891 27.2176C23.7187 27.1968 23.5587 27.3037 23.5127 27.4691L22.6077 30.7206C22.5472 30.9378 22.299 31.0406 22.1026 30.9298L19.1636 29.2706C19.0141 29.1862 18.8254 29.2237 18.7196 29.3589L16.6392 32.0165C16.5002 32.1941 16.2315 32.1941 16.0925 32.0165L14.0121 29.3589C13.9063 29.2237 13.7176 29.1862 13.5681 29.2706L10.6291 30.9298C10.4327 31.0406 10.1845 30.9378 10.124 30.7206L9.21904 27.4691C9.17301 27.3037 9.01303 27.1968 8.84263 27.2176L5.49235 27.6258C5.26852 27.6531 5.0785 27.463 5.10577 27.2392L5.51398 23.8889C5.53474 23.7185 5.42784 23.5586 5.26247 23.5125L2.011 22.6076C1.79377 22.5471 1.69094 22.2988 1.80179 22.1025L3.46102 19.1634C3.54541 19.014 3.50787 18.8252 3.3727 18.7194L0.715046 16.6391C0.537494 16.5001 0.537494 16.2314 0.715046 16.0924L3.3727 14.012C3.50787 13.9062 3.54541 13.7175 3.46102 13.568L1.80179 10.629C1.69094 10.4326 1.79377 10.1843 2.011 10.1239L5.26247 9.21892C5.42784 9.17289 5.53474 9.0129 5.51398 8.84251L5.10577 5.49222C5.0785 5.2684 5.26852 5.07838 5.49235 5.10565L8.84263 5.51386C9.01303 5.53462 9.17301 5.42772 9.21904 5.26235L10.124 2.01088C10.1845 1.79365 10.4327 1.69082 10.6291 1.80166L13.5681 3.4609C13.7176 3.54528 13.9063 3.50775 14.0121 3.37258L16.0925 0.714924Z" fill="#80C955"/>
<path d="M18.4353 20.8793L9.06897 11.513V9.06958H11.5124L20.8787 18.4359" stroke="white" stroke-width="1.62893" stroke-linecap="round" stroke-linejoin="round"/>
<path d="M17.2136 22.1004L22.1004 17.2136" stroke="white" stroke-width="1.62893" stroke-linecap="round" stroke-linejoin="round"/>
<path d="M19.6572 19.6572L22.9151 22.9151" stroke="white" stroke-width="1.62893" stroke-linecap="round" stroke-linejoin="round"/>
<path d="M22.1006 23.7298L23.7295 22.1008" stroke="white" stroke-width="1.62893" stroke-linecap="round" stroke-linejoin="round"/>
</g>
<defs>
<clipPath id="clip0_1043_818">
<rect x="0.365845" y="0.365723" width="32" height="32" rx="15.84" fill="white"/>
</clipPath>
</defs>
</svg>
